<?xml version="1.0" standalone="no"?><!DOCTYPE svg PUBLIC "-//W3C//DTD SVG 1.1//EN" "http://www.w3.org/Graphics/SVG/1.1/DTD/svg11.dtd"><svg t="1594782788949" class="icon" viewBox="0 0 1316 1024" version="1.1" xmlns="http://www.w3.org/2000/svg" p-id="1468" id="mx_n_1594782788950" xmlns:xlink="http://www.w3.org/1999/xlink" width="257.03125" height="200"><defs><style type="text/css"></style></defs><path d="M0 0m66.626153 0l1066.01845 0q66.626153 0 66.626153 66.626153l0 799.513837q0 66.626153-66.626153 66.626154l-1066.01845 0q-66.626153 0-66.626153-66.626154l0-799.513837q0-66.626153 66.626153-66.626153Z" fill="#DF3434" p-id="1469"></path><path d="M272.500966 429.738688l114.397105 82.94956-43.64013-134.451577 114.397105-83.682448H316.07447l-43.64013-135.117839-44.306392 135.117839H86.613999l114.397105 83.682448-43.64013 134.451577z m336.062316-248.848682l52.901166-12.858848-50.036241-20.720733 3.597812-53.300923-34.312469 41.441467-50.769128-20.720733 28.582619 45.772167-34.312468 41.441467 52.168278-12.858847 28.582619 45.772167z m0 449.726533l52.901166-12.858847-50.036241-19.987846 3.597812-54.366941-34.312469 41.441467-50.769128-20.720734 28.582619 46.638308-34.312468 41.441467 52.168278-12.858848 28.582619 45.772167z m125.856804-309.611733l53.300922 8.594773-37.910281-38.643168 25.051434-47.904204-48.637092 24.318545-37.177394-39.30943 7.128999 53.300923-47.904204 24.318545 52.901165 9.327662 7.861886 53.300922z m-16.45666 193.748853l44.306392 30.048395-17.855809-50.769129 42.174355-33.313076-53.300923 2.132037-18.588697-51.502017-14.990884 52.168278-54.366941 2.132037 45.039279 30.048395-14.990884 52.168278z" fill="#FFF100" p-id="1470"></path></svg>